<?xml version="1.0" encoding="utf-8"?>
<!-- Generator: Adobe Illustrator 18.0.0, SVG Export Plug-In . SVG Version: 6.00 Build 0)  -->
<!DOCTYPE svg PUBLIC "-//W3C//DTD SVG 1.1//EN" "http://www.w3.org/Graphics/SVG/1.1/DTD/svg11.dtd">
<svg version="1.1" xmlns="http://www.w3.org/2000/svg" xmlns:xlink="http://www.w3.org/1999/xlink" x="0px" y="0px"
	 viewBox="0 0 618.6 65.6" enable-background="new 0 0 618.6 65.6" xml:space="preserve">
	<g id="logo__35">
		<path d="M593.7,57c0,2.7-1,4.7-2.8,6.2s-4.3,2.2-7.2,2.2c-3.9,0-7.5-1.8-9.7-4.5l3.2-3.2c1.8,2.3,4.1,3.4,6.7,3.4
			c2.9,0,5.1-1.7,5.1-4.1c0-2.7-2.2-4.1-6-4.1H581v-4.4h1.6c3.8,0,5.7-1.6,5.7-4.1c0-2.4-2-3.6-4.5-3.6c-2.4,0-4.4,1-6,3l-3.1-3.1
			c2.5-2.8,5.5-4.3,9-4.3c2.6,0,4.8,0.6,6.6,2c1.8,1.3,2.7,3.2,2.7,5.8c0,2.6-1.1,4.6-3.3,6.1C591.9,51.5,593.7,53.9,593.7,57z"/>
		<path d="M608.6,50.9c-2.4,0-4,1-5,3.1h-4.3l0.7-16.9h16.3v4.3h-12l-0.4,6.9c1.4-1.1,3.1-1.7,5.1-1.7c2.6,0,4.8,0.8,6.7,2.4
			c1.9,1.6,2.8,3.9,2.8,7c0,2.8-1,5.1-2.9,6.9c-2,1.8-4.5,2.6-7.7,2.6c-3.9,0-7.1-1.7-9.2-4.4l3.3-3.3c1.7,2.3,3.8,3.4,6.2,3.4
			c3.2,0,5.5-2.2,5.5-5.2C613.7,53.1,611.5,50.9,608.6,50.9z"/>
	</g>
	<g id="logo__name">
		<path d="M20.1,25.2h1.4v-9.6c-0.6-0.1-1.5-0.1-2.6-0.1c-3.8,0-6.6,1.2-8.7,3.6L10,19.5v-3.4H0.2v35h9.9V36.5
			C10.1,29.4,13.8,25.2,20.1,25.2z"/>
		<path d="M56.8,20.5c-3.5-3.5-7.9-5.3-13.1-5.3c-5.2,0-9.6,1.8-13.2,5.3c-3.5,3.5-5.3,7.9-5.3,13.1c0,5.2,1.8,9.6,5.3,13.1
			c3.5,3.5,7.9,5.2,13.2,5.2s9.8-1.8,13.2-5.2c3.5-3.5,5.3-7.9,5.3-13.1C62.1,28.4,60.3,24,56.8,20.5z M49.6,40.1
			c-1.5,1.7-3.6,2.6-6,2.6c-2.4,0-4.5-0.9-6-2.6c-1.6-1.7-2.3-3.9-2.3-6.5c0-2.6,0.8-4.8,2.3-6.5c1.5-1.7,3.6-2.6,6-2.6
			c2.4,0,4.5,0.9,6,2.6c1.6,1.7,2.3,3.9,2.3,6.5C52,36.2,51.2,38.4,49.6,40.1z"/>
		<path d="M72.5,46.9c3.3,3.3,7.5,5,12.5,5c3.8,0,6.9-1.1,9.1-3.3l0.3-0.2v2.7h9.8V0.9h-9.9v17.6L94,18.3c-2.3-2.1-5.3-3.1-9-3.1
			c-5,0-9.2,1.7-12.5,5.1c-3.3,3.3-5,7.8-5,13.2C67.5,39.1,69.2,43.5,72.5,46.9z M80,26.8c1.6-1.8,3.6-2.6,6-2.6
			c2.4,0,4.4,0.9,5.9,2.6c1.6,1.7,2.4,4,2.4,6.7s-0.8,5-2.4,6.7c-1.5,1.8-3.5,2.6-5.9,2.6c-2.4,0-4.4-0.9-6-2.6
			c-1.6-1.8-2.3-4-2.3-6.7C77.7,30.9,78.5,28.6,80,26.8z"/>
		<path d="M142.7,20.5c-3.5-3.5-7.9-5.3-13.1-5.3c-5.2,0-9.6,1.8-13.2,5.3c-3.5,3.5-5.3,7.9-5.3,13.1c0,5.2,1.8,9.6,5.3,13.1
			c3.5,3.5,7.9,5.2,13.2,5.2s9.8-1.8,13.2-5.2c3.5-3.5,5.3-7.9,5.3-13.1C148.1,28.4,146.3,24,142.7,20.5z M135.6,40.1
			c-1.5,1.7-3.6,2.6-6,2.6c-2.4,0-4.5-0.9-6-2.6c-1.6-1.7-2.3-3.9-2.3-6.5c0-2.6,0.8-4.8,2.3-6.5c1.5-1.7,3.6-2.6,6-2.6
			c2.4,0,4.5,0.9,6,2.6c1.6,1.7,2.3,3.9,2.3,6.5C137.9,36.2,137.1,38.4,135.6,40.1z"/>
		<rect x="155" y="0.9" width="9.9" height="50.2"/>
		<path d="M205.4,20.3c-3.4-3.4-7.5-5.1-12.4-5.1c-3.7,0-6.7,1.1-9.1,3.3l-0.3,0.2v-2.7h-9.8v49h9.9V48.6l0.2,0.2c2.3,2,5.3,3,9,3
			c4.9,0,9.1-1.7,12.4-5.1c3.4-3.4,5.1-7.8,5.1-13.2C210.4,28.1,208.7,23.6,205.4,20.3z M197.9,40.3c-1.5,1.8-3.5,2.6-5.9,2.6
			c-2.4,0-4.4-0.9-6-2.6c-1.6-1.8-2.3-4-2.3-6.7c0-2.7,0.8-4.9,2.3-6.7c1.6-1.8,3.6-2.6,6-2.6c2.4,0,4.4,0.9,5.9,2.6
			c1.6,1.7,2.4,4,2.4,6.7C200.3,36.3,199.5,38.5,197.9,40.3z"/>
		<path d="M233.9,24.4c3.7,0,6,2.6,6,7.1v19.6h10V30.7c0-9.5-5.5-15.5-14.3-15.5c-3.4,0-6.1,0.9-8.1,2.8l-0.3,0.2V0.9h-9.9v50.2h9.9
			V33.6C227.3,27.5,229.5,24.4,233.9,24.4z"/>
		<path d="M283,38.8c-2.2,2.7-5.1,4-8.7,4c-4.3,0-7.5-2.6-8.1-6.6l0-0.2h23.9l0.1-2.9c0-4.8-1.5-9-4.4-12.6
			c-2.9-3.5-7.1-5.3-12.4-5.3c-5,0-9.2,1.8-12.4,5.3c-3.2,3.5-4.8,7.9-4.8,13.3c0,5.5,1.7,9.8,5.2,13.1c3.5,3.3,7.9,4.9,13.2,4.9
			c6.1,0,11.2-2.3,14.9-7L283,38.8z M266.8,29.3c0.7-3.4,3.3-5.4,6.8-5.4c3.3,0,5.9,2.3,6.1,5.4l0,0.2h-13L266.8,29.3z"/>
		<g>
			<path d="M324.7,11.7c3.2,0,5.8-2.6,5.8-5.8c0-3.2-2.7-5.8-5.8-5.8c-3.2,0-5.8,2.6-5.8,5.8C318.9,9.1,321.5,11.7,324.7,11.7z"/>
			<path d="M329.6,16.1h-9.9v35.6c0,3.7-1.8,4.5-4.8,4.5h-2.1v9.1l4.6,0.1c8.2,0,12.2-4.1,12.2-12.5V16.1z"/>
		</g>
		<path d="M348.7,51.9c3.6,0,6.5-1,8.8-3.1l0.2-0.2v2.5h9.9V29.2c0-4.4-1.4-7.7-4.3-10.2c-2.9-2.5-6.6-3.8-11-3.8
			c-5.9,0-10.7,2.2-14.6,6.8l6.2,6c1.8-2.7,4.4-4,7.6-4c3.7,0,6.1,2.3,6.1,5.9v0.8l-0.2-0.1c-2.4-0.7-4.7-1-7-1
			c-3.9,0-7.2,1-9.8,2.9c-2.6,1.9-4,4.7-4,8.3C336.6,47.4,341.5,51.9,348.7,51.9z M352.8,36.4c1.4,0,3,0.2,4.8,0.7l0.1,0v4.2l-0.1,0
			c-2,1.5-4.1,2.2-6.4,2.2c-2.6,0-4.5-1.4-4.5-3.3C346.6,37.8,348.9,36.4,352.8,36.4z"/>
		<path d="M392.9,24.4c3.7,0,6,2.6,6,7.1v19.6h10V30.7c0-9.5-5.5-15.5-14.3-15.5c-3.2,0-6,1.1-8.2,3.3l-0.3,0.2v-2.7h-9.8v35h9.9
			V33.6C386.3,27.5,388.5,24.4,392.9,24.4z"/>
		<path d="M433.6,29.1l-5.3-1.2c-2.2-0.5-2.6-1.4-2.6-2c0-1.3,1.5-2.2,3.5-2.2c2.8,0,5.5,1.1,8.3,3.4l6.1-6.4
			c-4.1-3.6-8.8-5.4-14-5.4c-3.8,0-7,1-9.6,3.1c-2.6,2-3.9,4.6-3.9,7.9c0,5.7,3.7,9.4,11.4,11.4l4.7,1.2c2.1,0.5,3.3,1.3,3.3,2.4
			c0,1.5-2.1,2.5-4.1,2.5c-3.5,0-6.9-1.6-10.1-4.6l-6.1,6.2c2.7,3.3,8.4,6.7,15.3,6.7c8.7,0,14.6-4.5,14.6-11.2
			C445.1,34.8,441.2,30.9,433.6,29.1z"/>
		<path d="M467.4,29.1l-5.3-1.2c-2.2-0.5-2.6-1.4-2.6-2c0-1.3,1.5-2.2,3.5-2.2c2.8,0,5.5,1.1,8.3,3.4l6.1-6.4
			c-4.1-3.6-8.8-5.4-14-5.4c-3.8,0-7,1-9.6,3.1c-2.6,2-3.9,4.6-3.9,7.9c0,5.7,3.7,9.4,11.4,11.4l4.7,1.2c2.1,0.5,3.3,1.3,3.3,2.4
			c0,1.5-2.1,2.5-4.1,2.5c-3.5,0-6.9-1.6-10.1-4.6l-6.1,6.2c2.7,3.3,8.4,6.7,15.3,6.7c8.7,0,14.6-4.5,14.6-11.2
			C478.9,34.8,475,30.9,467.4,29.1z"/>
		<path d="M510.5,38.8c-2.2,2.7-5.1,4-8.7,4c-4.3,0-7.5-2.6-8.1-6.6l0-0.2h23.9l0.1-2.9c0-4.8-1.5-9-4.4-12.6
			c-2.9-3.5-7.1-5.3-12.4-5.3c-5,0-9.2,1.8-12.4,5.3c-3.2,3.5-4.8,7.9-4.8,13.3c0,5.5,1.7,9.8,5.2,13.1c3.5,3.3,7.9,4.9,13.2,4.9
			c6.1,0,11.2-2.3,14.9-7L510.5,38.8z M494.3,29.3c0.7-3.4,3.3-5.4,6.8-5.4c3.3,0,5.9,2.3,6.1,5.4l0,0.2h-13L494.3,29.3z"/>
		<path d="M541.5,24.4c3.7,0,6,2.6,6,7.1v19.6h10V30.7c0-9.5-5.5-15.5-14.3-15.5c-3.2,0-6,1.1-8.2,3.3l-0.3,0.2v-2.7h-9.8v35h9.9
			V33.6C534.9,27.5,537.1,24.4,541.5,24.4z"/>
	</g>
	<g id="logo__32">
		<path d="M593.9,20.4c0,2.7-1,4.7-2.8,6.2c-1.9,1.5-4.3,2.2-7.2,2.2c-3.9,0-7.5-1.8-9.7-4.5l3.2-3.2c1.8,2.3,4.1,3.4,6.7,3.4
			c2.9,0,5.1-1.7,5.1-4.1c0-2.7-2.2-4.1-6-4.1h-2.1V12h1.6c3.8,0,5.7-1.6,5.7-4.1c0-2.4-2-3.6-4.5-3.6c-2.4,0-4.4,1-6,3l-3.1-3.1
			c2.5-2.8,5.5-4.3,9-4.3c2.6,0,4.8,0.6,6.6,2c1.8,1.3,2.7,3.2,2.7,5.8c0,2.6-1.1,4.6-3.3,6.1C592.1,14.9,593.9,17.3,593.9,20.4z"/>
		<path d="M617.9,24.1v4.3h-19v-0.9c0-3.3,0.7-5.9,2.1-7.9c1.4-2,3.9-3.9,7.4-5.7l0.7-0.4c3-1.4,4.1-2.8,4.1-5.2c0-2.4-1.8-4-4.7-4
			c-3,0-5.3,1.8-6.5,4.9l-3.1-3.1c1.6-3.6,5.2-6.1,9.5-6.1c2.7,0,4.9,0.8,6.8,2.2s2.8,3.6,2.8,6.3c0,3.6-2.1,6.5-6.2,8.6l-2.4,1.2
			c-1.4,0.8-2.3,1.3-3.4,2.2c-1.1,0.9-1.8,2.1-2,3.5H617.9z"/>
	</g>
</svg>
