<?xml version="1.0" encoding="utf-8"?>
<!-- Generator: Adobe Illustrator 18.0.0, SVG Export Plug-In . SVG Version: 6.00 Build 0)  -->
<!DOCTYPE svg PUBLIC "-//W3C//DTD SVG 1.1//EN" "http://www.w3.org/Graphics/SVG/1.1/DTD/svg11.dtd">
<svg version="1.1" id="Layer_1" xmlns="http://www.w3.org/2000/svg" xmlns:xlink="http://www.w3.org/1999/xlink" x="0px" y="0px"
	 viewBox="781.1 252.4 60.7 39.5" enable-background="new 781.1 252.4 60.7 39.5" xml:space="preserve">
<path d="M808.1,280.5c0,3.7-1.4,6.4-3.8,8.4c-2.5,2-5.9,3-9.8,3c-5.3,0-10.2-2.5-13.2-6.1l4.4-4.4c2.5,3.1,5.6,4.6,9.1,4.6
	c4,0,6.9-2.3,6.9-5.6c0-3.7-3-5.6-8.2-5.6h-2.9v-6h2.2c5.2,0,7.8-2.2,7.8-5.6c0-3.3-2.7-4.9-6.1-4.9c-3.3,0-6,1.4-8.2,4.1l-4.2-4.2
	c3.4-3.8,7.5-5.9,12.3-5.9c3.5,0,6.5,0.8,9,2.7c2.5,1.8,3.7,4.4,3.7,7.9s-1.5,6.3-4.5,8.3C805.7,273,808.1,276.3,808.1,280.5z"/>
<path d="M828.3,272c-3.3,0-5.4,1.4-6.8,4.2h-5.9l1-23h22.2v5.9h-16.3l-0.5,9.4c1.9-1.5,4.2-2.3,6.9-2.3c3.5,0,6.5,1.1,9.1,3.3
	c2.6,2.2,3.8,5.3,3.8,9.5c0,3.8-1.4,6.9-4,9.4c-2.7,2.5-6.1,3.5-10.5,3.5c-5.3,0-9.7-2.3-12.5-6l4.5-4.5c2.3,3.1,5.2,4.6,8.4,4.6
	c4.4,0,7.5-3,7.5-7.1C835.4,275,832.2,272,828.3,272z"/>
</svg>
