<?xml version="1.0" encoding="utf-8"?>
<!-- Generator: Adobe Illustrator 18.0.0, SVG Export Plug-In . SVG Version: 6.00 Build 0)  -->
<!DOCTYPE svg PUBLIC "-//W3C//DTD SVG 1.1//EN" "http://www.w3.org/Graphics/SVG/1.1/DTD/svg11.dtd">
<svg version="1.1" id="Layer_1" xmlns="http://www.w3.org/2000/svg" xmlns:xlink="http://www.w3.org/1999/xlink" x="0px" y="0px"
	 viewBox="0.1 502 841.8 97.9" enable-background="new 0.1 502 841.8 97.9" xml:space="preserve">
<path d="M29.7,539.3h1.8v-13.8c-0.9,0-2.1,0-3.7,0c-5.5,0-9.9,1.8-12.9,5.3l-1.1,1.2v-5.8H0.1v52.2h14.3v-21.9
	C14.5,545.7,20.3,539.3,29.7,539.3z"/>
<path d="M85.1,532.7c-5.3-5.3-11.8-7.9-19.6-7.9c-7.7,0-14.3,2.8-19.8,7.9c-5.3,5.3-7.9,11.8-7.9,19.5s2.8,14.2,7.9,19.5
	c5.1,5.1,11.8,7.7,19.8,7.7s14.5-2.6,19.8-7.7c5.3-5.3,7.9-11.8,7.9-19.5C93.1,544.4,90.5,538,85.1,532.7z M74.8,562.3
	c-2.4,2.6-5.5,3.9-9.3,3.9c-3.8,0-7-1.3-9.3-3.9c-2.4-2.6-3.7-6-3.7-10.1c0-4.1,1.2-7.4,3.7-10.1c2.4-2.6,5.5-3.9,9.3-3.9
	c3.8,0,7,1.3,9.3,3.9c2.4,2.6,3.7,6,3.7,10.1C78.5,556.3,77.3,559.8,74.8,562.3z"/>
<path d="M109.4,572.2c5,5,11.2,7.4,18.6,7.4c5.5,0,10.3-1.7,13.7-4.9l0.9-0.9v4.6h14.1v-75.1h-14.3v27.1l-0.9-0.8
	c-3.4-3-7.9-4.6-13.3-4.6c-7.4,0-13.7,2.6-18.6,7.7c-5,5-7.4,11.7-7.4,19.8C101.9,560.5,104.4,567.2,109.4,572.2z M120.2,541.9
	c2.6-2.8,5.5-4.1,9.3-4.1c3.8,0,6.8,1.3,9.2,4.1s3.8,6.2,3.8,10.4c0,4.2-1.2,7.7-3.8,10.4c-2.4,2.8-5.4,4.1-9.2,4.1
	c-3.8,0-6.8-1.3-9.3-4.1c-2.4-2.8-3.7-6.2-3.7-10.4C116.5,548.1,117.8,544.7,120.2,541.9z"/>
<path d="M215,532.7c-5.3-5.3-11.8-7.9-19.6-7.9c-7.7,0-14.3,2.8-19.8,7.9c-5.3,5.3-7.9,11.8-7.9,19.5s2.8,14.2,7.9,19.5
	c5.1,5.1,11.8,7.7,19.8,7.7c8,0,14.5-2.6,19.8-7.7c5.3-5.3,7.9-11.8,7.9-19.5S220.3,538,215,532.7z M204.7,562.3
	c-2.4,2.6-5.5,3.9-9.3,3.9c-3.8,0-7-1.3-9.3-3.9c-2.4-2.6-3.7-6-3.7-10.1c0-4.1,1.2-7.4,3.7-10.1c2.4-2.6,5.5-3.9,9.3-3.9
	c3.8,0,7,1.3,9.3,3.9c2.4,2.6,3.7,6,3.7,10.1S207.1,559.8,204.7,562.3z"/>
<rect x="234.2" y="503.3" width="14.3" height="75.1"/>
<path d="M309.8,532.4c-5-5-11.2-7.5-18.6-7.5c-5.5,0-10,1.7-13.7,5l-0.9,0.9v-4.6h-14.1v73.4h14.3v-25.2l0.9,0.8
	c3.3,2.9,7.9,4.3,13.3,4.3c7.2,0,13.4-2.6,18.6-7.5c5-5,7.5-11.7,7.5-19.8C317.3,544.2,314.8,537.3,309.8,532.4z M298.9,562.6
	c-2.4,2.8-5.4,4.1-9.2,4.1c-3.8,0-6.8-1.3-9.3-4.1c-2.4-2.8-3.7-6.2-3.7-10.4c0-4.2,1.2-7.7,3.7-10.4c2.6-2.8,5.5-4.1,9.3-4.1
	c3.8,0,6.8,1.3,9.2,4.1s3.8,6.2,3.8,10.4C302.7,556.4,301.5,559.9,298.9,562.6z"/>
<path d="M376.9,578.4V548c0-14.2-8.2-23-21.2-23c-5,0-8.9,1.3-12.1,4.2l-0.9,0.9v-26.9h-14.3v75.1h14.3v-26.2
	c0-9.3,3.4-14.2,10.4-14.2c5.9,0,9.3,4.1,9.3,11v29.3h14.4V578.4z"/>
<path d="M427.4,560.6c-3.3,3.9-7.7,5.9-13.1,5.9c-6.7,0-11.7-4.1-12.5-10.3l-0.1-0.6H438l0.1-4.1c0-7.1-2.2-13.4-6.7-18.8
	c-4.3-5.3-10.5-8-18.4-8c-7.5,0-13.8,2.8-18.6,7.9c-4.7,5.1-7.1,11.8-7.1,19.8c0,8.2,2.6,14.7,7.7,19.6c5.3,5,11.8,7.4,19.8,7.4
	c9.1,0,16.4-3.4,22.1-10.1L427.4,560.6z M402.6,545.7c1.1-5.1,5.1-8.4,10.8-8.4c5.1,0,9.2,3.7,9.7,8.4v0.6h-20.4L402.6,545.7
	L402.6,545.7z"/>
<path d="M490.5,518.8c4.6,0,8.4-3.8,8.4-8.3c0-4.6-3.9-8.4-8.4-8.4c-4.7,0-8.3,3.8-8.3,8.4C481.9,515,485.7,518.8,490.5,518.8z"/>
<path d="M497.6,526.2h-14.3v53.5c0,5.9-3,7.1-7.7,7.1h-2.9v13l6.7,0.1c12.2,0,18.1-6,18.1-18.4v-55.4h0.1V526.2z"/>
<path d="M526.7,579.5c5.3,0,9.7-1.6,13.1-4.6l0.9-0.8v4.2H555v-32.9c0-6.5-2.1-11.5-6.5-15.1c-4.3-3.8-9.9-5.5-16.3-5.5
	c-8.8,0-15.9,3.3-21.4,10l8.9,8.4c2.8-3.9,6.7-5.9,11.5-5.9c5.8,0,9.5,3.8,9.5,9.2v1.7l-0.8-0.1c-3.4-1.1-7.1-1.6-10.5-1.6
	c-5.8,0-10.8,1.6-14.7,4.3c-3.9,2.9-5.9,7-5.9,12.2C508.7,573.1,516,579.5,526.7,579.5z M532.8,556.1c2.1,0,4.6,0.3,7.2,1.1l0.4,0.1
	v6.8l-0.3,0.1c-3,2.2-6.3,3.3-10,3.3c-4.2,0-7.2-2.2-7.2-5.3C523.2,558.4,526.9,556.1,532.8,556.1z"/>
<path d="M617.5,578.4V548c0-14.2-8.2-23-21.2-23c-4.9,0-8.9,1.7-12.2,4.9l-0.9,0.9v-4.6h-14.1v52.2h14.3v-26.2
	c0-9.3,3.4-14.2,10.4-14.2c5.9,0,9.3,4.1,9.3,11v29.3h14.3V578.4z"/>
<path d="M654.9,545.9l-8-1.8c-3.4-0.8-4.2-2.2-4.2-3.3c0-2.1,2.4-3.8,5.5-3.8c4.2,0,8.3,1.7,12.5,5l8.8-9.2c-6-5.1-13-7.9-20.5-7.9
	c-5.8,0-10.4,1.6-14.3,4.6c-3.9,2.9-5.8,6.8-5.8,11.8c0,8.4,5.5,13.9,17,17l7.1,1.8c4.3,1.1,5.3,2.8,5.3,3.9c0,2.2-2.9,4.1-6.5,4.1
	c-5.3,0-10.4-2.2-15.3-6.8l-8.8,8.9c4.1,4.9,12.5,9.7,22.6,9.7c13,0,21.8-6.7,21.8-16.6C672,554.3,666.3,548.5,654.9,545.9z"/>
<path d="M706,545.9l-8-1.8c-3.4-0.8-4.2-2.2-4.2-3.3c0-2.1,2.4-3.8,5.5-3.8c4.2,0,8.3,1.7,12.5,5l8.8-9.2c-6-5.1-13-7.9-20.5-7.9
	c-5.8,0-10.4,1.6-14.3,4.6c-3.9,2.9-5.8,6.8-5.8,11.8c0,8.4,5.5,13.9,17,17l7.1,1.8c4.3,1.1,5.3,2.8,5.3,3.9c0,2.2-2.9,4.1-6.5,4.1
	c-5.3,0-10.4-2.2-15.3-6.8l-8.8,8.8c4.1,4.9,12.5,9.7,22.6,9.7c13,0,21.8-6.7,21.8-16.6C723.1,554.3,717.4,548.5,706,545.9z"/>
<path d="M771.3,560.6c-3.3,3.9-7.7,5.9-13.1,5.9c-6.7,0-11.7-4.1-12.5-10.3l-0.1-0.6h36.3l0.1-4.1c0-7.1-2.2-13.4-6.7-18.8
	c-4.3-5.3-10.5-8-18.4-8c-7.5,0-13.8,2.8-18.6,7.9c-4.7,5.1-7.1,11.8-7.1,19.8c0,8.2,2.6,14.7,7.7,19.6c5.3,5,11.8,7.4,19.8,7.4
	c9.1,0,16.4-3.4,22.1-10.1L771.3,560.6z M746.5,545.7c1.1-5.1,5.1-8.4,10.8-8.4c5.1,0,9.2,3.7,9.7,8.4v0.6h-20.4V545.7z"/>
<path d="M841.9,578.4V548c0-14.2-8.2-23-21.2-23c-4.9,0-8.9,1.7-12.2,4.9l-0.9,0.9v-4.6h-14.1v52.2h14.3v-26.2
	c0-9.3,3.4-14.2,10.4-14.2c5.9,0,9.3,4.1,9.3,11v29.3h14.3V578.4z"/>
</svg>
