<?xml version="1.0" encoding="utf-8"?>
<!-- Generator: Adobe Illustrator 18.0.0, SVG Export Plug-In . SVG Version: 6.00 Build 0)  -->
<!DOCTYPE svg PUBLIC "-//W3C//DTD SVG 1.0//EN" "http://www.w3.org/TR/2001/REC-SVG-20010904/DTD/svg10.dtd">
<svg version="1.0" id="Layer_1" xmlns="http://www.w3.org/2000/svg" xmlns:xlink="http://www.w3.org/1999/xlink" x="0px" y="0px"
	 viewBox="0 0 557 65.1" enable-background="new 0 0 557 65.1" xml:space="preserve">
<g>
	<path d="M19.8,24.8H21v-9.1c-0.6,0-1.4,0-2.4,0c-3.7,0-6.5,1.2-8.5,3.5L9.5,20v-3.8H0.1v34.5h9.5V36.3
		C9.6,29.1,13.4,24.8,19.8,24.8z"/>
	<path d="M56.3,20.5c-3.5-3.5-7.8-5.2-13-5.2c-5.1,0-9.5,1.8-13.1,5.2c-3.5,3.5-5.2,7.8-5.2,12.9c0,5.1,1.8,9.4,5.2,12.9
		c3.4,3.4,7.8,5.1,13.1,5.1s9.6-1.7,13.1-5.1c3.5-3.5,5.2-7.8,5.2-12.9C61.6,28.3,59.8,24,56.3,20.5z M49.5,40.1
		c-1.6,1.7-3.7,2.6-6.2,2.6c-2.5,0-4.6-0.9-6.2-2.6c-1.6-1.7-2.4-4-2.4-6.7s0.8-4.9,2.4-6.7c1.6-1.7,3.7-2.6,6.2-2.6
		c2.5,0,4.6,0.9,6.2,2.6c1.6,1.7,2.4,4,2.4,6.7C51.9,36.1,51.1,38.3,49.5,40.1z"/>
	<path d="M72.4,46.6c3.3,3.3,7.4,4.9,12.3,4.9c3.7,0,6.8-1.1,9-3.2l0.6-0.6v3h9.3V1h-9.5v17.9l-0.6-0.5c-2.3-2-5.2-3-8.8-3
		c-4.9,0-9,1.7-12.3,5.1c-3.3,3.3-4.9,7.7-4.9,13.1C67.5,38.9,69.1,43.3,72.4,46.6z M79.6,26.6c1.7-1.8,3.7-2.7,6.2-2.7
		c2.5,0,4.5,0.9,6.1,2.7c1.6,1.8,2.5,4.1,2.5,6.9s-0.8,5.1-2.5,6.9c-1.6,1.8-3.6,2.7-6.1,2.7c-2.5,0-4.5-0.9-6.2-2.7
		c-1.6-1.8-2.4-4.1-2.4-6.9S78,28.4,79.6,26.6z"/>
	<path d="M142.2,20.5c-3.5-3.5-7.8-5.2-13-5.2c-5.1,0-9.5,1.8-13.1,5.2c-3.5,3.5-5.2,7.8-5.2,12.9c0,5.1,1.8,9.4,5.2,12.9
		c3.4,3.4,7.8,5.1,13.1,5.1s9.6-1.7,13.1-5.1c3.5-3.5,5.2-7.8,5.2-12.9C147.5,28.3,145.8,24,142.2,20.5z M135.4,40.1
		c-1.6,1.7-3.7,2.6-6.2,2.6c-2.5,0-4.6-0.9-6.2-2.6c-1.6-1.7-2.4-4-2.4-6.7s0.8-4.9,2.4-6.7c1.6-1.7,3.7-2.6,6.2-2.6
		c2.5,0,4.6,0.9,6.2,2.6c1.6,1.7,2.4,4,2.4,6.7C137.8,36.1,137,38.3,135.4,40.1z"/>
	<rect x="155" y="1" width="9.5" height="49.7"/>
	<path d="M204.9,20.3c-3.3-3.3-7.4-5-12.3-5c-3.7,0-6.6,1.1-9,3.3l-0.6,0.6v-3h-9.3v48.5h9.5V48l0.6,0.5c2.2,1.9,5.2,2.9,8.8,2.9
		c4.8,0,8.9-1.7,12.3-5c3.3-3.3,5-7.7,5-13.1C209.9,28,208.2,23.6,204.9,20.3z M197.8,40.3c-1.6,1.8-3.6,2.7-6.1,2.7
		c-2.5,0-4.5-0.9-6.2-2.7c-1.6-1.8-2.4-4.1-2.4-6.9s0.8-5.1,2.4-6.9c1.7-1.8,3.7-2.7,6.2-2.7c2.5,0,4.5,0.9,6.1,2.7
		c1.6,1.8,2.5,4.1,2.5,6.9S199.4,38.5,197.8,40.3z"/>
	<path d="M249.3,50.7V30.5c0-9.4-5.4-15.2-14-15.2c-3.3,0-5.9,0.9-8,2.8l-0.6,0.6V1h-9.5v49.7h9.5V33.4c0-6.2,2.3-9.4,6.9-9.4
		c3.9,0,6.2,2.7,6.2,7.3v19.4H249.3z"/>
	<path d="M282.7,38.9c-2.2,2.6-5.1,3.9-8.7,3.9c-4.4,0-7.7-2.7-8.3-6.8l-0.1-0.4h24l0.1-2.7c0-4.7-1.5-8.9-4.4-12.4
		c-2.9-3.5-7-5.3-12.2-5.3c-5,0-9.1,1.8-12.3,5.2c-3.1,3.4-4.7,7.8-4.7,13.1c0,5.4,1.7,9.7,5.1,13c3.5,3.3,7.8,4.9,13.1,4.9
		c6,0,10.9-2.3,14.6-6.7L282.7,38.9z M266.3,29.1c0.7-3.4,3.4-5.6,7.1-5.6c3.4,0,6.1,2.4,6.4,5.6l0,0.4h-13.5L266.3,29.1z"/>
	<g>
		<path d="M324.4,11.3c3,0,5.6-2.5,5.6-5.5c0-3-2.6-5.6-5.6-5.6c-3.1,0-5.5,2.5-5.5,5.6C318.9,8.8,321.3,11.3,324.4,11.3z"/>
		<path d="M329.1,16.2h-9.5v35.4c0,3.9-2,4.7-5.1,4.7h-1.9v8.6l4.4,0.1c8.1,0,12-4,12-12.2V16.2z"/>
	</g>
	<path d="M348.4,51.5c3.5,0,6.4-1,8.7-3l0.6-0.5v2.8h9.4V29c0-4.3-1.4-7.6-4.3-10c-2.9-2.5-6.5-3.7-10.8-3.7
		c-5.8,0-10.5,2.2-14.2,6.6l5.9,5.6c1.8-2.6,4.4-3.9,7.6-3.9c3.8,0,6.3,2.5,6.3,6.1v1.1l-0.5-0.1c-2.3-0.7-4.7-1-7-1
		c-3.8,0-7.1,1-9.7,2.9c-2.6,1.9-3.9,4.6-3.9,8.1C336.6,47.1,341.3,51.5,348.4,51.5z M352.5,36c1.4,0,3,0.2,4.8,0.7l0.3,0.1v4.5
		l-0.2,0.1c-2,1.5-4.2,2.2-6.6,2.2c-2.8,0-4.8-1.5-4.8-3.5C346.1,37.5,348.5,36,352.5,36z"/>
	<path d="M408.4,50.7V30.5c0-9.4-5.4-15.2-14-15.2c-3.2,0-5.9,1.1-8.1,3.2l-0.6,0.6v-3h-9.3v34.5h9.5V33.4c0-6.2,2.3-9.4,6.9-9.4
		c3.9,0,6.2,2.7,6.2,7.3v19.4H408.4z"/>
	<path d="M433.2,29.2L428,28c-2.3-0.5-2.8-1.5-2.8-2.2c0-1.4,1.6-2.5,3.7-2.5c2.8,0,5.5,1.1,8.3,3.3l5.8-6.1
		c-4-3.4-8.6-5.2-13.6-5.2c-3.8,0-6.9,1-9.5,3c-2.6,1.9-3.8,4.5-3.8,7.8c0,5.6,3.7,9.2,11.2,11.2l4.7,1.2c2.9,0.7,3.5,1.8,3.5,2.6
		c0,1.5-1.9,2.7-4.3,2.7c-3.5,0-6.9-1.5-10.1-4.5l-5.8,5.9c2.7,3.2,8.3,6.4,15,6.4c8.6,0,14.4-4.4,14.4-11
		C444.5,34.7,440.7,30.9,433.2,29.2z"/>
	<path d="M467.1,29.2l-5.3-1.2c-2.3-0.5-2.8-1.5-2.8-2.2c0-1.4,1.6-2.5,3.7-2.5c2.8,0,5.5,1.1,8.3,3.3l5.8-6.1
		c-4-3.4-8.6-5.2-13.6-5.2c-3.8,0-6.9,1-9.5,3c-2.6,1.9-3.8,4.5-3.8,7.8c0,5.6,3.7,9.2,11.2,11.2l4.7,1.2c2.9,0.7,3.5,1.8,3.5,2.6
		c0,1.5-1.9,2.7-4.3,2.7c-3.5,0-6.9-1.5-10.1-4.5L449,45c2.7,3.2,8.3,6.4,15,6.4c8.6,0,14.4-4.4,14.4-11
		C478.4,34.7,474.6,30.9,467.1,29.2z"/>
	<path d="M510.3,38.9c-2.2,2.6-5.1,3.9-8.7,3.9c-4.4,0-7.7-2.7-8.3-6.8l-0.1-0.4h24l0.1-2.7c0-4.7-1.5-8.9-4.4-12.4
		c-2.9-3.5-7-5.3-12.2-5.3c-5,0-9.1,1.8-12.3,5.2c-3.1,3.4-4.7,7.8-4.7,13.1c0,5.4,1.7,9.7,5.1,13c3.5,3.3,7.8,4.9,13.1,4.9
		c6,0,10.9-2.3,14.6-6.7L510.3,38.9z M493.8,29.1c0.7-3.4,3.4-5.6,7.1-5.6c3.4,0,6.1,2.4,6.4,5.6l0,0.4h-13.5L493.8,29.1z"/>
	<path d="M557,50.7V30.5c0-9.4-5.4-15.2-14-15.2c-3.2,0-5.9,1.1-8.1,3.2l-0.6,0.6v-3h-9.3v34.5h9.5V33.4c0-6.2,2.3-9.4,6.9-9.4
		c3.9,0,6.2,2.7,6.2,7.3v19.4H557z"/>
</g>
</svg>
